<?xml version="1.0" encoding="UTF-8"?><svg version="1.1" width="1600px" height="372px" viewBox="0 0 1600.0 372.0" xmlns="http://www.w3.org/2000/svg" xmlns:xlink="http://www.w3.org/1999/xlink"><defs><clipPath id="i0"><path d="M1600,0 L1600,4267 L0,4267 L0,0 L1600,0 Z"></path></clipPath><clipPath id="i1"><path d="M1604,0 L1604,372 L0,372 L0,0 L1604,0 Z"></path></clipPath><linearGradient id="i2" x1="1630.73615px" y1="7.68060117px" x2="-1489.55717px" y2="675.681681px" gradientUnits="userSpaceOnUse"><stop stop-color="#BA1F25" offset="0%"></stop><stop stop-color="#F6E04A" offset="100%"></stop></linearGradient><clipPath id="i3"><path d="M390.5,0 C606.167195,0 781,174.608948 781,390 C781,605.391052 606.167195,780 390.5,780 C174.832805,780 0,605.391052 0,390 C0,174.608948 174.832805,0 390.5,0 Z"></path></clipPath><linearGradient id="i4" x1="289.210526px" y1="60.963347px" x2="628.587214px" y2="806.179543px" gradientUnits="userSpaceOnUse"><stop stop-color="#BA1F25" offset="0%"></stop><stop stop-color="#F6E04A" offset="100%"></stop></linearGradient><clipPath id="i5"><path d="M319.5,0 C495.954978,0 639,143.26888 639,320 C639,496.73112 495.954978,640 319.5,640 C143.045022,640 0,496.73112 0,320 C0,143.26888 143.045022,0 319.5,0 Z"></path></clipPath><linearGradient id="i6" x1="246.740001px" y1="383.972476px" x2="-47.4546592px" y2="1087.64025px" gradientUnits="userSpaceOnUse"><stop stop-color="#BA1F25" offset="0%"></stop><stop stop-color="#F6E04A" offset="100%"></stop></linearGradient><clipPath id="i7"><path d="M623,0 L623,1213 L0,0 L623,0 Z"></path></clipPath><linearGradient id="i8" x1="623px" y1="0px" x2="0px" y2="1213px" gradientUnits="userSpaceOnUse"><stop stop-color="#BA1F25" offset="0%"></stop><stop stop-color="#F6E04A" offset="100%"></stop></linearGradient><clipPath id="i9"><path d="M778,0 L778,1514 L0,0 L778,0 Z"></path></clipPath><linearGradient id="i10" x1="637.103608px" y1="223.904783px" x2="304.220726px" y2="1714.40763px" gradientUnits="userSpaceOnUse"><stop stop-color="#BA1F25" offset="0%"></stop><stop stop-color="#F6E04A" offset="100%"></stop></linearGradient><clipPath id="i11"><path d="M655,0 L655,1275 L0,0 L655,0 Z"></path></clipPath><linearGradient id="i12" x1="464.613833px" y1="36.9347438px" x2="0px" y2="1275px" gradientUnits="userSpaceOnUse"><stop stop-color="#BA1F25" offset="0%"></stop><stop stop-color="#F6E04A" offset="100%"></stop></linearGradient></defs><g transform="translate(0.0 -3379.0)"><g clip-path="url(#i0)"><g transform="translate(-4.0 3379.0)"><g transform="translate(1604.0 372.0) rotate(-180.0)"><g clip-path="url(#i1)"><polygon points="0,0 1600,0 1600,372 0,372 0,0" stroke="none" fill="url(#i2)"></polygon><g transform="translate(1604.0 372.0) rotate(180.0)"><g transform="translate(660.0 249.0)"><g clip-path="url(#i3)"><polygon points="0,0 781,0 781,123 0,123 0,0" stroke="none" fill="url(#i4)"></polygon></g></g><g transform="translate(848.0 -205.0)"><g clip-path="url(#i5)"><polygon points="0,205 639,205 639,577 0,577 0,205" stroke="none" fill="url(#i6)"></polygon></g></g><g transform="translate(948.5730413559133 601.6496988131339) rotate(-40.000000000000014)"><g clip-path="url(#i7)"><polygon points="0,0 623,0 623,245.378452 0,245.378452 0,0" stroke="none" fill="url(#i8)"></polygon></g></g><g transform="translate(539.9346549947342 -29.24413506490305) rotate(-40.000000000000014)"><g clip-path="url(#i9)"><polygon points="-2.27373675e-13,-2.27373675e-13 778,-2.27373675e-13 778,991.33886 -2.27373675e-13,991.33886 -2.27373675e-13,-2.27373675e-13" stroke="none" fill="url(#i10)"></polygon></g></g><g transform="translate(1167.158121498369 128.6929889436526) rotate(-40.000000000000014)"><g clip-path="url(#i11)"><polygon points="-2.27373675e-13,0 417.362552,0 417.362552,467.180531 -2.27373675e-13,467.180531 -2.27373675e-13,0" stroke="none" fill="url(#i12)"></polygon></g></g></g></g></g></g></g></g></svg>